<svg width="2201" height="1355" viewBox="0 0 2201 1355" fill="none" xmlns="http://www.w3.org/2000/svg">
<mask id="mask0_157_188" style="mask-type:alpha" maskUnits="userSpaceOnUse" x="0" y="0" width="2201" height="1355">
<rect x="0.688599" y="0.226074" width="2199.9" height="1354.09" fill="#C4C4C4"/>
</mask>
<g mask="url(#mask0_157_188)">
<path d="M1982.97 43.5281H1302.08L1509.53 655.633C1517.1 677.958 1538.05 692.979 1561.62 692.979H2203.09L1982.97 43.5281Z" fill="#D5E8F9"/>
<path d="M1724.45 43.5281H1085.4C1064.86 43.5281 1050.4 63.7044 1056.99 83.1576L1251.01 655.633C1258.58 677.958 1279.53 692.979 1303.1 692.979H1944.56L1724.45 43.5281Z" fill="#D5E8F9"/>
<g opacity="0.1">
<path d="M-44.7699 1290.73C146.647 1295.7 341.655 1232.71 484.528 1105.27C732.103 884.434 804.718 500.161 1083.74 320.771C1114.11 301.255 1146.81 284.494 1182.1 276.901C1220.93 268.556 1261.44 271.668 1300.51 278.884C1506.46 316.907 1673.86 462.266 1827.95 604.18C1847.08 621.788 1866.58 639.721 1890.06 650.907C1971.98 689.917 2069.66 633.482 2124.73 561.407C2179.81 489.331 2212.3 400.571 2275.67 335.692C2372.56 236.422 2520.78 212.2 2658.24 193.188" stroke="#183E73" stroke-miterlimit="10"/>
<path d="M2658.63 201.012C2522.43 215.027 2374.85 234.227 2275.98 328.838C2256.59 347.779 2239.09 368.564 2223.73 390.901C2187.9 441.747 2158.98 498.736 2119.57 548.189C2087.07 588.972 2041.03 624.97 1992.22 641.518C1955.96 653.627 1918.07 654.922 1883.06 639.596C1859.44 629.259 1839.64 612.497 1820.36 595.767C1668.87 466.653 1505.44 334.091 1307.18 293.103C1300.47 291.713 1293.71 290.428 1286.91 289.247C1247.55 282.436 1206.82 279.55 1167.68 287.74C1132.13 295.203 1098.99 311.429 1068.29 330.644C791.094 504.198 715.486 879.827 470.192 1096.85C328.6 1222 136.772 1285.13 -51.6056 1282.4" stroke="#183E73" stroke-miterlimit="10"/>
<path d="M2658.96 208.849C2524.04 217.875 2377.07 232.074 2276.3 322.03C2256.47 340.052 2238.46 359.966 2222.51 381.489C2185.28 430.525 2154.85 486.227 2114.42 535.063C2081.03 575.267 2034.61 611.104 1985.52 628.03C1949.19 640.495 1911.3 642.573 1876.08 628.395C1852.32 618.897 1832.3 603.099 1812.62 587.557C1659.07 466.599 1493.5 341.838 1293.75 303.298C1286.96 302.011 1280.16 300.809 1273.33 299.691C1233.7 293.303 1192.72 290.609 1153.29 298.661C1117.45 305.975 1083.91 321.674 1052.85 340.552C777.526 508.25 698.918 875.263 455.887 1088.49C315.696 1211.51 126.936 1274.59 -58.416 1274.03" stroke="#183E73" stroke-miterlimit="10"/>
<path d="M2659.31 216.675C2525.69 220.73 2379.26 229.868 2276.58 315.214C2256.34 332.321 2237.82 351.359 2221.27 372.059C2182.69 419.292 2150.73 473.718 2109.14 521.798C2074.85 561.45 2028.06 597.099 1978.75 614.509C1942.3 627.304 1904.44 629.99 1869 617.108C1845.11 608.448 1824.81 593.692 1804.84 579.201C1649.04 466.301 1481.46 349.452 1280.18 313.399C1273.37 312.176 1266.52 311.047 1259.63 310.013C1219.71 304.031 1178.5 301.545 1138.77 309.46C1102.67 316.643 1068.71 331.825 1037.31 350.421C763.993 512.401 682.256 870.659 441.522 1080.07C302.672 1200.85 116.969 1264.04 -65.1997 1265.78" stroke="#183E73" stroke-miterlimit="10"/>
<path d="M2659.65 224.529C2527.17 223.485 2381.5 227.75 2276.89 308.388C2256.22 324.569 2237.19 342.733 2220.05 362.619C2180.07 408.069 2146.59 461.237 2103.92 508.611C2068.75 547.684 2021.57 583.155 1972.05 600.975C1935.49 614.072 1897.51 617.42 1861.97 605.762C1837.97 597.912 1817.39 584.272 1797.14 570.822C1639.15 466.161 1469.48 357.128 1266.73 323.531C1259.85 322.398 1252.95 321.346 1246.03 320.375C1205.83 314.817 1164.36 312.551 1124.34 320.309C1087.97 327.363 1053.64 341.996 1021.86 360.311C750.6 516.589 665.685 866.049 427.203 1071.64C289.731 1190.22 107.232 1253.46 -72.0132 1257.36" stroke="#183E73" stroke-miterlimit="10"/>
<path d="M2660 232.356C2528.89 226.391 2383.72 225.597 2277.18 301.572C2256.09 316.837 2236.54 334.125 2218.81 353.19C2177.56 396.784 2142.48 448.717 2098.73 495.414C2062.65 533.918 2015.08 569.21 1965.3 587.518C1928.64 600.935 1890.58 604.879 1854.91 594.539C1830.76 587.51 1809.93 574.946 1789.4 562.52C1629.14 465.99 1457.44 364.846 1253.21 333.704C1246.25 332.662 1239.32 331.673 1232.43 330.738C1191.94 325.586 1150.26 323.517 1109.93 331.138C1073.32 338.05 1038.55 352.177 1006.48 370.142C737.188 520.907 648.98 861.494 412.842 1063.27C276.692 1179.62 97.3011 1242.89 -78.8739 1249.07" stroke="#183E73" stroke-miterlimit="10"/>
<path d="M2660.35 240.182C2530.5 229.239 2385.93 223.427 2277.46 294.756C2255.95 309.095 2235.89 325.508 2217.58 343.76C2174.87 385.585 2138.35 436.208 2093.53 482.217C2056.55 520.151 2008.6 555.238 1958.59 574.012C1921.82 587.732 1883.73 592.387 1847.86 583.232C1823.61 577.048 1802.49 565.536 1781.67 554.179C1619.2 465.807 1445.45 372.504 1239.71 343.838C1232.78 342.843 1225.78 341.952 1218.72 341.162C1177.85 336.404 1136.04 334.574 1095.41 342.039C1058.52 348.803 1023.37 362.438 990.874 380.098C723.888 525.255 632.427 856.874 398.523 1054.84C263.716 1169 87.4262 1232.32 -85.6918 1240.73" stroke="#183E73" stroke-miterlimit="10"/>
<path d="M2660.71 248.072C2532.14 232.122 2388.17 221.309 2277.76 287.912C2255.81 301.322 2235.23 316.87 2216.34 334.33C2172.24 374.345 2134.22 423.681 2088.28 469.005C2050.51 506.326 2002.08 541.286 1951.83 560.491C1914.96 574.531 1876.79 579.846 1840.79 571.934C1816.39 566.582 1795.01 556.146 1773.91 545.813C1609.24 465.679 1433.43 380.2 1226.19 354.011C1219.19 353.119 1212.15 352.301 1205.06 351.556C1164.02 347.233 1121.83 345.575 1080.93 352.891C1044.04 359.765 1008.43 372.282 975.362 390.002C710.623 529.702 615.782 852.259 384.232 1046.42C250.641 1158.42 77.5515 1221.76 -92.4992 1232.4" stroke="#183E73" stroke-miterlimit="10"/>
<path d="M2661.04 255.863C2533.73 234.935 2390.36 219.103 2278.09 281.093C2255.72 293.583 2234.64 308.269 2215.17 324.933C2169.71 363.144 2130.17 411.222 2083.15 455.84C2044.44 492.715 1995.66 527.375 1945.16 547.057C1908.28 561.41 1869.99 567.398 1833.83 560.723C1809.28 556.191 1787.64 546.843 1766.28 537.541C1599.34 465.475 1421.49 387.901 1212.76 364.178C1205.69 363.358 1198.6 362.617 1191.48 361.954C1150.15 358.037 1107.73 356.587 1066.53 363.766C1029.39 370.407 993.459 382.588 959.941 399.9C697.434 534.2 599.187 847.688 369.818 1038.08C237.736 1147.77 67.6768 1211.19 -99.2459 1224.02" stroke="#183E73" stroke-miterlimit="10"/>
<path d="M2661.4 263.707C2535.33 237.765 2392.6 216.94 2278.36 274.288C2255.55 285.843 2233.95 299.645 2213.88 315.489C2167.05 351.896 2125.98 398.698 2077.88 442.639C2038.22 478.873 1989.14 513.451 1938.36 533.529C1901.28 548.172 1863.03 554.821 1826.7 549.393C1802.03 545.717 1780.13 537.4 1758.46 529.16C1589.36 465.358 1409.42 395.583 1199.21 374.315C1192.11 373.584 1184.96 372.914 1177.78 372.304C1136.18 368.829 1093.51 367.57 1052.01 374.611C1014.62 381.034 978.361 392.881 944.39 409.778C684.298 538.787 582.563 843.109 355.45 1029.61C224.764 1137.2 57.8124 1200.65 -106.122 1215.78" stroke="#183E73" stroke-miterlimit="10"/>
<path d="M2661.73 271.544C2536.95 240.613 2394.93 215.056 2278.65 267.472C2255.41 278.092 2233.29 290.994 2212.6 305.988C2164.4 340.602 2121.81 386.117 2072.62 429.363C2032.08 465.035 1982.51 499.424 1931.62 519.997C1894.43 534.961 1856.1 542.279 1819.65 538.086C1794.82 535.241 1772.67 528 1750.73 520.802C1579.35 465.096 1397.46 403.323 1185.7 384.46C1178.56 383.86 1171.37 383.285 1164.14 382.733C1122.27 379.653 1079.35 378.614 1037.58 385.506C999.929 391.708 963.352 403.226 928.944 419.715C671.249 543.442 565.977 838.556 341.194 1021.29C211.795 1126.56 47.9762 1190.11 -112.901 1207.46" stroke="#183E73" stroke-miterlimit="10"/>
<path d="M2662.13 279.339C2538.61 243.43 2397.16 212.875 2278.99 260.625C2255.34 270.338 2232.72 282.395 2211.47 296.616C2161.88 329.391 2117.78 373.648 2067.54 416.288C2026.1 451.391 1976.23 485.549 1924.94 506.591C1887.65 521.857 1849.26 529.851 1812.61 526.824C1787.58 524.739 1765.27 518.69 1743.07 512.568C1569.41 464.941 1385.44 410.973 1172.22 394.629C1165.01 394.071 1157.75 393.537 1150.45 393.027C1108.29 390.353 1065.09 389.553 1023.07 396.277C985.156 402.253 948.248 413.44 913.397 429.519C658.143 548.081 549.309 833.86 326.77 1012.81C198.74 1115.85 38.0318 1179.47 -119.809 1199" stroke="#183E73" stroke-miterlimit="10"/>
<path d="M2662.42 287.225C2540.17 246.309 2399.35 210.743 2279.24 253.83C2255.16 262.605 2232.02 273.791 2210.18 287.218C2159.2 318.21 2113.6 361.17 2062.25 403.051C2019.91 437.556 1969.64 471.565 1918.22 493.095C1880.82 508.681 1842.36 517.335 1805.6 515.615C1780.51 514.448 1757.83 509.325 1735.3 504.184C1559.41 464.714 1373.45 418.585 1158.69 404.739C1151.41 404.215 1144.13 403.778 1136.83 403.428C1094.39 401.177 1051 400.556 1008.63 407.155C970.446 412.924 933.21 423.779 897.912 439.43C645.244 552.911 532.716 829.334 312.475 1004.47C185.777 1105.3 28.206 1168.95 -126.585 1190.73" stroke="#183E73" stroke-miterlimit="10"/>
<path d="M2662.77 295.051C2541.79 249.157 2401.56 208.572 2279.48 246.926C2254.98 254.764 2231.33 265.071 2208.91 277.689C2156.57 306.878 2109.43 348.59 2056.99 389.775C2013.75 423.711 1963.13 457.493 1911.4 479.44C1873.86 495.321 1835.4 504.694 1798.47 504.166C1773.22 503.829 1750.29 499.784 1727.51 495.719C1549.37 464.399 1361.32 426.161 1145.12 414.749C1137.8 414.344 1130.45 413.992 1123.07 413.69C1080.35 411.845 1036.7 411.442 994.044 417.875C955.601 423.467 918.043 433.996 882.299 449.203C632.237 557.803 516.11 824.745 298.131 996.081C172.773 1094.68 18.3312 1158.38 -133.421 1182.4" stroke="#183E73" stroke-miterlimit="10"/>
<path d="M2663.13 302.895C2543.4 252.005 2403.72 206.358 2279.82 240.199C2254.89 247.09 2230.73 256.523 2207.73 268.348C2154.02 295.733 2105.34 336.18 2051.82 376.659C2007.7 410.034 1956.66 443.659 1904.75 466.132C1867.14 482.323 1828.59 492.32 1791.52 493.064C1766.14 493.565 1742.95 490.597 1719.89 487.556C1539.52 464.375 1349.42 434.007 1131.72 425.06C1124.36 424.764 1116.98 424.487 1109.57 424.23C1066.57 422.809 1022.68 422.597 979.729 428.892C941.021 434.277 903.139 444.473 866.961 459.243C619.336 562.753 499.504 820.156 283.795 987.666C159.797 1084.06 8.4669 1147.84 -140.264 1174.09" stroke="#183E73" stroke-miterlimit="10"/>
<path d="M2663.49 310.785C2545.03 254.888 2406.01 204.33 2280.23 233.384C2254.87 239.331 2230.19 247.898 2206.6 258.948C2151.51 284.523 2101.31 323.682 2046.72 363.474C2001.7 396.279 1950.29 429.716 1898.14 452.667C1860.42 469.159 1821.79 479.844 1784.58 481.814C1759.15 483.13 1735.61 481.227 1712.27 479.255C1529.67 464.214 1337.52 441.705 1118.32 435.235C1110.9 435.003 1103.47 434.804 1096.02 434.635C1052.77 433.645 1008.62 433.606 965.376 439.763C926.076 445.382 887.656 454.632 851.561 469.176C606.632 567.754 482.972 815.571 269.535 979.302C146.878 1073.46 -1.34418 1137.26 -146.98 1165.76" stroke="#183E73" stroke-miterlimit="10"/>
<path d="M2663.81 318.559C2546.61 257.683 2408.18 202.116 2280.42 226.575C2254.63 231.557 2229.44 239.243 2205.26 249.507C2148.8 273.26 2097.08 311.161 2041.41 350.276C1995.48 382.512 1943.69 415.742 1891.31 439.159C1853.49 455.971 1814.85 467.284 1777.45 470.53C1751.79 472.719 1728.07 471.851 1704.44 470.903C1519.68 463.987 1325.42 449.379 1104.72 445.357C1097.27 445.227 1089.78 445.104 1082.27 444.989C1038.72 444.386 994.332 444.585 950.79 450.604C911.142 456.115 872.471 464.894 835.971 479.029C593.62 572.84 466.253 810.952 255.104 970.847C133.807 1062.81 -11.222 1126.65 -153.892 1157.38" stroke="#183E73" stroke-miterlimit="10"/>
<path d="M2664.17 326.403C2548.25 260.566 2410.39 199.945 2280.73 219.748C2254.51 223.794 2228.8 230.608 2204.03 240.077C2146.2 262.027 2092.95 298.68 2036.18 337.071C1989.38 368.745 1937.2 401.798 1884.59 425.682C1846.67 442.796 1807.91 454.817 1770.39 459.251C1744.65 462.349 1720.63 462.487 1696.73 462.58C1509.65 463.855 1313.42 457.093 1091.26 455.591L1068.67 455.443C1024.84 455.246 980.214 455.654 936.376 461.535C896.604 466.833 857.457 475.245 820.535 488.984C580.836 578.031 449.657 806.381 240.77 962.478C120.824 1052.22 -21.1366 1116.18 -160.689 1149.07" stroke="#183E73" stroke-miterlimit="10"/>
<path d="M2664.5 334.239C2549.84 263.379 2412.58 197.785 2281.02 212.933C2254.37 216.032 2228.13 221.977 2202.75 230.668C2143.58 250.878 2088.8 286.181 2030.92 323.915C1983.23 355.01 1930.66 387.884 1877.81 412.217C1839.78 429.634 1800.95 442.36 1763.3 448.02C1737.39 451.903 1713.13 453.136 1688.94 454.281C1499.63 463.713 1301.36 464.793 1077.68 465.703L1054.95 465.804C1010.83 466.013 965.968 466.629 921.836 472.372C881.744 477.571 842.32 485.549 804.956 498.855C568.002 583.3 432.987 801.805 226.38 954.095C107.785 1041.62 -31.0855 1105.61 -167.56 1140.76" stroke="#183E73" stroke-miterlimit="10"/>
<path d="M2664.85 342.066C2551.54 266.175 2414.79 195.614 2281.31 206.117C2254.25 208.256 2227.51 213.319 2201.55 221.217C2140.99 239.571 2084.71 273.651 2025.77 310.687C1977.17 341.223 1924.22 373.909 1871.15 398.708C1832.99 416.437 1794.07 429.861 1756.32 436.699C1730.25 441.459 1705.68 443.782 1681.28 445.927C1489.74 463.481 1289.42 472.448 1064.25 475.824L1041.35 476.166C996.967 476.789 951.862 477.595 907.353 483.225C867.005 488.311 827.24 495.868 789.443 508.759C555.227 588.629 416.346 797.236 212.037 945.708C94.7733 1031.03 -40.9498 1095.07 -174.368 1132.43" stroke="#183E73" stroke-miterlimit="10"/>
<path d="M2665.19 349.92C2553.07 269.075 2416.99 193.186 2281.61 199.291C2254.14 200.464 2226.88 204.661 2200.33 211.806C2138.37 228.348 2080.58 261.142 2020.59 297.554C1971.1 327.51 1917.71 359.929 1864.55 385.214C1826.28 403.263 1787.36 417.333 1749.39 425.439C1723.2 431.038 1698.43 434.378 1673.69 437.605C1479.9 463.309 1277.54 480.136 1050.86 485.988L1027.83 486.551C983.18 487.569 937.803 488.605 893.089 494.045C852.464 498.982 812.39 506.172 774.086 518.643C542.623 594.048 399.859 792.649 197.813 937.323C82.3493 1019.53 -45.6112 1082.59 -181.15 1124.07" stroke="#183E73" stroke-miterlimit="10"/>
<path d="M2665.54 357.747C2554.62 271.816 2419.26 191.104 2281.94 192.546C2254.06 192.763 2226.29 196.08 2199.15 202.437C2135.82 217.186 2076.51 248.722 2015.38 284.367C1965 313.744 1911.28 346.074 1857.73 371.817C1819.37 390.157 1780.42 404.986 1742.27 414.247C1715.95 420.684 1690.94 425.119 1665.87 429.345C1469.86 463.206 1265.47 487.892 1037.3 496.209C1029.53 496.51 1021.8 496.769 1014.1 496.986C969.169 498.455 923.595 499.726 878.555 504.974C837.653 509.763 797.255 516.642 758.594 528.583C529.864 599.487 383.204 788.017 183.445 928.855C69.4495 1008.98 -55.6772 1071.95 -187.947 1115.76" stroke="#183E73" stroke-miterlimit="10"/>
<path d="M2665.9 365.591C2556.25 274.653 2421.43 188.862 2282.19 185.659C2253.9 184.922 2225.62 187.363 2197.87 192.936C2133.17 205.864 2072.34 236.141 2010.11 271.12C1958.82 299.955 1904.71 332.079 1850.93 358.271C1813.77 376.621 1775.02 391.561 1735.16 402.907C1708.7 410.21 1683.39 415.651 1658.09 420.971C1459.82 462.982 1253.37 495.52 1023.7 506.304C1015.98 506.664 1008.23 506.988 1000.46 507.277C955.22 509.163 909.408 510.596 864.094 515.742C822.936 520.418 782.222 526.837 743.093 538.384C517.126 604.961 366.57 783.42 169.048 920.5C56.4726 998.461 -65.8522 1061.3 -194.793 1107.41" stroke="#183E73" stroke-miterlimit="10"/>
<path d="M2666.27 373.499C2557.99 277.641 2423.69 186.78 2282.53 178.904C2253.84 177.265 2225.06 178.862 2196.73 183.667C2130.64 194.802 2068.3 223.792 2005.02 258.072C1952.85 286.328 1898.34 318.257 1844.34 344.932C1806.9 363.53 1768.04 379.131 1728.13 391.589C1701.54 399.731 1675.97 406.23 1650.36 412.585C1449.89 462.77 1241.39 503.15 1010.23 516.4C1002.42 516.857 994.596 517.273 986.765 517.646C941.239 519.937 895.173 521.589 849.583 526.587C808.158 531.133 767.127 537.213 727.56 548.252C504.351 610.576 350.014 778.754 154.726 912.029C43.5638 987.918 -76.0104 1050.68 -201.611 1099.07" stroke="#183E73" stroke-miterlimit="10"/>
<path d="M2666.58 381.254C2559.53 280.438 2425.87 184.528 2282.83 171.986C2253.72 169.353 2224.41 170.049 2195.46 174.064C2128.01 183.378 2064.13 211.092 1999.76 244.677C1946.71 272.371 1891.81 304.121 1837.57 331.246C1799.93 350.241 1761.03 366.635 1721.15 380.314C1694.44 389.312 1668.6 396.853 1642.73 404.267C1439.93 462.597 1229.4 510.854 996.765 526.587C988.902 527.122 981.023 527.618 973.13 528.075C927.345 530.779 881.034 532.623 835.148 537.482C793.457 541.898 752.109 547.638 712.086 558.182C491.727 616.245 333.297 774.301 140.403 903.678C30.6254 977.454 -86.2239 1040.12 -208.418 1090.74" stroke="#183E73" stroke-miterlimit="10"/>
<path d="M2666.94 389.098C2561.14 283.286 2428.08 182.385 2283.09 165.191C2253.56 161.6 2223.72 161.411 2194.15 164.629C2125.33 172.14 2059.94 198.596 1994.49 231.475C1940.52 258.61 1885.25 290.172 1830.78 317.763C1792.91 337.111 1753.95 354.26 1714.1 369.126C1687.23 378.983 1661.12 387.583 1634.98 396.01C1429.99 462.413 1217.42 518.558 983.261 536.75C975.358 537.355 967.436 537.924 959.492 538.458C913.389 541.514 866.873 543.62 820.693 548.342C778.724 552.609 737.08 558.046 696.59 568.075C479.024 621.985 316.794 769.604 126.077 895.281C16.9051 967.283 -100.117 1031.66 -215.236 1082.4" stroke="#183E73" stroke-miterlimit="10"/>
<path d="M2667.27 396.935C2562.75 286.134 2430.3 180.232 2283.36 158.358C2253.44 153.816 2223.09 152.763 2192.93 155.218C2122.73 160.935 2055.83 186.104 1989.23 218.337C1934.38 244.893 1878.72 276.277 1824.01 304.317C1785.11 324.214 1745.87 342.473 1706.96 357.824C1679.92 368.615 1653.59 378.179 1627.17 387.675C1419.98 462.271 1205.35 526.286 969.71 546.915C961.772 547.621 953.812 548.291 945.832 548.925C899.483 552.459 852.673 554.713 806.205 559.269C763.98 563.423 722.022 568.566 681.091 578.043C466.313 627.872 300.095 765.14 111.701 886.961C3.89683 956.736 -110.049 1021.2 -222.048 1074.15" stroke="#183E73" stroke-miterlimit="10"/>
<path d="M2667.63 404.779C2564.38 288.972 2432.51 178.061 2283.66 151.559C2253.33 146.075 2222.47 144.144 2191.7 145.806C2120.15 149.691 2051.71 173.613 1984.08 205.137C1928.34 231.113 1872.19 262.353 1817.36 290.826C1778.35 311.025 1739.05 329.961 1699.97 346.532C1672.87 358.119 1646.26 368.753 1619.5 379.304C1410.07 462.067 1193.41 533.941 956.259 557.047C948.258 557.836 940.234 558.544 932.185 559.171C885.549 563.11 838.504 565.572 791.741 569.99C749.25 574.015 706.998 578.9 665.598 587.816C453.583 633.604 283.48 760.413 97.3659 878.426C-9.07452 946.047 -119.848 1010.52 -228.869 1065.76" stroke="#183E73" stroke-miterlimit="10"/>
<path d="M2667.96 412.616C2565.97 291.812 2434.7 175.929 2283.97 144.733C2253.22 138.273 2221.82 135.444 2190.42 136.305C2117.44 138.355 2047.53 161.015 1978.81 191.844C1922.19 217.258 1865.73 248.251 1810.57 277.252C1771.43 297.69 1732.12 317.374 1692.9 335.171C1665.64 347.607 1638.72 359.331 1611.74 370.892C1400.05 461.787 1181.36 541.538 942.738 567.099C934.692 567.947 926.627 568.75 918.545 569.508C871.621 573.853 824.34 576.524 777.265 580.815C734.525 584.698 691.942 589.3 650.1 597.664C440.976 639.549 266.877 755.87 83.0604 870.065C-22.0608 935.416 -129.723 999.961 -235.697 1057.4" stroke="#183E73" stroke-miterlimit="10"/>
<path d="M2668.24 420.484C2567.51 294.702 2436.88 173.797 2284.18 137.959C2253.05 130.581 2221.16 126.905 2189.17 127.005C2114.85 127.287 2043.38 148.636 1973.62 178.83C1916.09 203.685 1859.27 234.508 1803.86 263.958C1764.66 284.769 1725.24 305.041 1685.85 324.075C1658.48 337.367 1631.28 350.132 1604.01 362.745C1390.1 461.797 1169.41 549.461 929.188 577.55C921.074 578.501 912.954 579.384 904.825 580.2C857.607 584.98 810.077 587.796 762.746 591.973C719.652 595.658 676.845 600.081 634.559 607.846C428.084 645.78 250.173 751.481 68.6188 861.878C-35.081 924.97 -139.696 989.597 -242.62 1049.28" stroke="#183E73" stroke-miterlimit="10"/>
<path d="M2668.67 428.286C2569.19 297.508 2439.16 171.585 2284.54 131.102C2253.02 122.779 2220.62 118.221 2188.02 117.524C2112.32 116.013 2039.32 136.113 1968.4 165.58C1909.96 189.838 1852.77 220.472 1797.12 250.399C1757.79 271.522 1718.32 292.489 1678.73 312.791C1651.24 326.911 1623.76 340.746 1596.22 354.4C1380.11 461.571 1157.21 557.095 915.646 587.568C907.513 588.593 899.346 589.56 891.143 590.467C843.673 595.631 795.939 598.709 748.265 602.706C704.963 606.321 661.779 610.463 619.037 617.612C415.249 651.74 233.54 746.764 54.2662 853.354C-48.0404 914.18 -149.332 978.87 -249.34 1040.74" stroke="#183E73" stroke-miterlimit="10"/>
<path d="M2669.01 436.125C2550.99 272.953 2387.89 116.777 2186.78 108.096C2046.12 101.959 1914.08 169.662 1790.42 236.912C1507.98 390.438 1220.77 554.489 902.207 597.598C803.062 611.046 702.521 612.464 603.59 627.384C287.732 675.134 10.201 855.986 -256.2 1032.45" stroke="#183E73" stroke-miterlimit="10"/>
<path d="M-254.602 1017.95C9.93502 843.607 286.405 666.732 599.793 627.118C702.546 614.14 807.275 617.618 910.883 604.023C1226.28 561.688 1511.09 399.848 1789.02 245.403C1914.05 175.898 2045.89 103.476 2186.95 105.068C2386.58 107.296 2550.43 255.197 2671.64 411.78" stroke="#183E73" stroke-miterlimit="10"/>
<path d="M-253.057 1003.5C9.68754 831.218 285.173 658.658 595.926 626.776C702.582 615.835 811.451 624.452 919.482 610.398C1231.8 569.81 1514.13 409.18 1787.58 253.916C1914.03 182.106 2045.55 104.937 2187.11 101.95C2385.18 97.8392 2549.87 237.174 2674.26 387.356" stroke="#183E73" stroke-miterlimit="10"/>
<path d="M-251.501 989.053C9.42205 818.839 284.181 651.159 592.052 626.462C702.694 617.58 815.615 631.102 928.091 616.791C1237.24 577.384 1520.27 423.59 1786.15 262.418C1912.54 185.808 2045.23 106.433 2187.29 98.9589C2383.69 88.6569 2549.35 219.371 2676.93 363.113" stroke="#183E73" stroke-miterlimit="10"/>
<path d="M-249.937 974.584C9.19222 806.439 283.28 644.06 588.167 626.13C702.849 619.396 819.761 637.763 936.69 623.166C1242.71 584.919 1524.11 434.07 1784.71 270.931C1912.05 191.216 2044.75 108.023 2187.47 95.9225C2382.3 79.3845 2548.79 201.514 2679.57 338.77" stroke="#183E73" stroke-miterlimit="10"/>
<path d="M-248.374 960.114C8.90928 794.071 282.533 637.347 584.311 625.805C703.087 621.235 823.942 644.403 945.325 629.521C1248.16 592.391 1522.98 436.568 1783.3 279.452C1913.96 200.566 2044.31 109.637 2187.66 92.8572C2380.81 70.2478 2548.26 183.646 2682.23 314.371" stroke="#183E73" stroke-miterlimit="10"/>
<path d="M-246.836 945.683C8.64384 781.692 281.802 631.03 580.409 625.483C703.307 623.204 828.06 651.056 953.906 635.906C1253.57 599.837 1525.83 445.552 1781.84 287.975C1913.88 206.686 2043.82 111.374 2187.78 89.8339C2379.21 61.2655 2547.64 165.803 2684.84 290.095" stroke="#183E73" stroke-miterlimit="10"/>
<path d="M-245.29 931.224C8.37854 769.314 281.173 625.011 576.542 625.141C703.593 625.205 832.213 657.689 962.505 642.281C1259 607.227 1528.66 454.438 1780.37 296.406C1913.79 212.696 2043.24 112.98 2187.94 86.7155C2377.67 52.3259 2547.09 147.843 2687.54 265.619" stroke="#183E73" stroke-miterlimit="10"/>
<path d="M-243.745 916.765C8.11331 756.935 280.512 619.344 572.668 624.827C703.913 627.306 836.403 664.301 971.105 648.656C1264.44 614.589 1531.46 463.241 1778.97 304.99C1913.76 218.812 2042.76 114.855 2188.11 83.7528C2376.06 43.5198 2546.54 130.078 2690.1 241.374" stroke="#183E73" stroke-miterlimit="10"/>
<path d="M-242.171 902.313C7.88647 744.582 280.021 613.888 568.783 624.495C704.193 629.502 840.5 670.919 979.704 655.032C1269.92 621.874 1534.22 471.974 1777.53 313.504C1913.7 224.83 2042.21 116.726 2188.32 80.6776C2374.49 34.7568 2546.02 112.2 2692.8 217.064" stroke="#183E73" stroke-miterlimit="10"/>
<path d="M-240.537 887.802C7.68923 732.116 279.573 608.669 564.998 624.129C704.657 631.685 844.749 677.471 988.42 661.363C1275.37 629.162 1537.02 480.583 1776.18 321.965C1913.69 230.77 2041.76 118.609 2188.51 77.6126C2372.81 26.1579 2545.51 94.3226 2695.46 192.711" stroke="#183E73" stroke-miterlimit="10"/>
<path d="M-239.08 873.394C7.33516 719.789 278.962 603.783 561.025 623.848C704.914 634.085 848.804 684.138 996.93 667.79C1280.68 636.476 1539.62 489.243 1774.68 330.537C1913.49 236.796 2041.13 120.641 2188.68 74.586C2371.31 17.5753 2544.95 76.5113 2698.12 168.284" stroke="#183E73" stroke-miterlimit="10"/>
<path d="M-237.524 858.953C7.06976 707.41 278.427 599.068 557.151 623.534C705.229 636.546 852.944 690.707 1005.55 674.201C1286.1 643.775 1542.29 497.816 1773.26 339.085C1913.39 242.761 2040.62 122.749 2188.78 71.619C2369.68 9.18571 2544.33 58.6959 2700.67 144.113" stroke="#183E73" stroke-miterlimit="10"/>
<path d="M-235.979 844.494C6.82221 695.021 277.868 594.556 553.284 623.192C705.612 639.039 857.084 697.275 1014.13 680.54C1291.51 650.963 1544.88 506.264 1771.8 347.563C1913.23 248.646 2040.07 124.831 2189.02 68.523C2368.19 0.758869 2543.84 40.7974 2703.39 119.747" stroke="#183E73" stroke-miterlimit="10"/>
<path d="M-234.433 830.034C6.53902 682.653 277.328 590.201 549.41 622.877C705.957 641.673 861.224 703.844 1022.73 686.915C1296.86 658.109 1547.44 514.705 1770.37 356.065C1913.1 254.511 2039.61 127.01 2189.2 65.4402C2366.68 -7.60145 2543.3 22.8842 2705.99 95.2872" stroke="#183E73" stroke-miterlimit="10"/>
<path d="M-232.89 815.529C6.22487 670.231 276.713 585.961 545.494 622.492C706.242 644.367 865.371 710.385 1031.33 693.291C1302.3 665.351 1549.99 523.081 1768.93 364.578C1912.94 260.35 2039.12 129.245 2189.35 62.3959C2365.18 -15.8521 2542.73 5.03736 2708.71 70.9948" stroke="#183E73" stroke-miterlimit="10"/>
<path d="M-231.314 801.123C6.0572 657.938 276.151 581.976 541.651 622.231C706.574 647.223 869.522 716.972 1039.94 699.656C1307.71 672.54 1552.5 531.415 1767.49 373.091C1912.69 266.168 2038.61 131.593 2189.51 59.3236C2363.69 -24.0388 2542.15 -12.8728 2711.28 46.6656" stroke="#183E73" stroke-miterlimit="10"/>
<path d="M-229.768 786.664C5.72671 645.407 275.493 578.07 537.82 621.868C706.899 650.107 873.691 723.428 1048.61 706.017C1313.17 679.651 1555.03 539.683 1766.11 381.591C1912.52 271.933 2038.36 133.859 2189.74 56.2837C2362.32 -32.1784 2541.69 -30.7182 2713.95 22.2383" stroke="#183E73" stroke-miterlimit="10"/>
<path d="M-228.181 772.276C5.54425 633.17 274.805 574.278 534.02 621.558C707.235 653.176 877.895 729.983 1057.27 712.425C1318.58 686.858 1557.54 547.943 1764.68 390.168C1912.29 277.74 2032.46 125.292 2189.93 53.293C2367.19 -27.7497 2541.15 -48.5114 2716.65 -1.95163" stroke="#183E73" stroke-miterlimit="10"/>
<path d="M-226.667 757.763C5.33678 620.687 274.088 570.598 530.026 621.242C707.328 656.315 881.92 736.477 1065.7 718.71C1323.86 693.861 1559.78 556.072 1763.14 398.549C1911.89 283.337 2031.9 128.122 2189.98 50.1169C2365.79 -36.6061 2540.48 -66.4899 2719.21 -26.4366" stroke="#183E73" stroke-miterlimit="10"/>
<path d="M-225.104 743.294C1.22649 610.17 269.179 566.518 526.141 620.91C707.457 659.599 886.046 742.982 1074.31 725.195C1329.32 701.064 1562.18 564.348 1761.72 407.171C1911.6 289.129 2031.59 131.305 2190.18 47.1896C2364.47 -45.2746 2539.94 -84.2375 2721.78 -50.738" stroke="#183E73" stroke-miterlimit="10"/>
<path d="M-223.548 728.852C4.735 595.971 272.477 563.507 522.267 620.596C707.653 662.916 890.259 749.389 1082.97 731.539C1334.7 708.172 1564.54 572.451 1760.32 415.681C1911.27 294.776 2037.08 143.755 2190.38 44.1146C2357.01 -64.2009 2539.44 -102.125 2724.5 -75.0121" stroke="#183E73" stroke-miterlimit="10"/>
<path d="M-222.002 714.393C4.46981 583.592 271.643 560.157 518.418 620.243C707.784 666.366 894.358 755.887 1091.6 737.894C1340.13 715.23 1566.88 580.546 1758.92 424.174C1910.96 300.367 2036.94 146.291 2190.57 41.0497C2355.79 -72.1195 2538.83 -119.951 2727.07 -99.3134" stroke="#183E73" stroke-miterlimit="10"/>
<path d="M-220.456 699.934C4.24594 571.285 270.71 556.841 514.509 619.95C707.814 669.97 898.436 762.349 1100.17 744.29C1345.49 722.347 1569.12 588.63 1757.46 432.697C1910.51 305.966 2036.75 148.904 2190.72 38.0335C2354.64 -80.0234 2538.32 -137.857 2729.81 -123.69" stroke="#183E73" stroke-miterlimit="10"/>
<path d="M-218.901 685.492C3.95691 558.824 269.733 553.574 510.642 619.607C707.804 673.669 902.567 768.78 1108.76 750.665C1350.88 729.426 1571.4 596.664 1756.02 441.21C1910.07 311.509 2036.66 151.529 2190.89 34.9789C2353.53 -87.9301 2537.76 -155.714 2732.45 -148.033" stroke="#183E73" stroke-miterlimit="10"/>
<path d="M-217.337 671.022C3.69154 546.445 268.679 550.377 506.768 619.293C707.736 677.474 906.705 775.183 1117.37 757.058C1356.28 736.477 1573.58 604.687 1754.62 449.794C1909.63 317.081 2036.67 154.268 2191.1 31.9953C2352.51 -95.7229 2537.27 -173.511 2735.13 -172.305" stroke="#183E73" stroke-miterlimit="10"/>
<path d="M-215.827 656.584C3.39064 534.088 267.535 547.232 502.812 619.003C707.54 681.424 910.745 781.62 1125.9 763.475C1361.66 743.492 1575.76 612.682 1753.13 458.236C1909.07 322.485 2036.61 156.826 2191.21 28.8342C2351.41 -103.732 2536.6 -191.471 2737.7 -196.772" stroke="#183E73" stroke-miterlimit="10"/>
<path d="M-214.236 642.122C3.16085 521.688 266.401 544.104 499.009 618.647C707.407 685.362 914.944 787.964 1134.61 769.834C1367.1 750.614 1577.91 620.697 1751.74 466.792C1908.52 327.952 2036.67 159.534 2191.42 25.8788C2350.47 -111.502 2536.14 -209.26 2740.38 -221.015" stroke="#183E73" stroke-miterlimit="10"/>
<path d="M-212.69 627.662C2.91317 509.299 265.151 541.02 495.125 618.315C707.172 689.573 919.079 794.321 1143.19 776.173C1372.46 757.612 1580.03 628.659 1750.28 475.269C1907.98 333.272 2036.79 162.155 2191.57 22.7889C2349.53 -119.364 2535.58 -227.163 2743.02 -245.386" stroke="#183E73" stroke-miterlimit="10"/>
<path d="M-211.145 613.203C2.64799 496.921 263.848 537.968 491.258 617.972C706.92 693.795 923.168 800.229 1151.79 782.549C1377.82 764.232 1582.07 636.479 1748.84 483.782C1907.24 338.659 2036.85 164.881 2191.75 19.752C2348.63 -127.247 2535.02 -245.02 2745.66 -269.728" stroke="#183E73" stroke-miterlimit="10"/>
<path d="M-209.571 598.751C2.41813 484.521 262.473 534.957 487.384 617.658C706.467 698.205 927.284 806.716 1160.39 788.924C1383.21 771.431 1584.16 644.479 1747.42 492.331C1906.56 343.988 2037.05 167.626 2191.94 16.7331C2347.8 -135.079 2534.49 -262.841 2748.32 -294.035" stroke="#183E73" stroke-miterlimit="10"/>
<path d="M-208.031 584.2C2.1188 472.043 261.011 531.878 483.493 617.234C705.976 702.59 931.442 813.274 1168.99 795.299C1388.64 778.701 1586.18 652.383 1745.94 500.818C1905.7 349.253 2037.21 170.3 2192.06 13.6634C2346.91 -142.973 2533.88 -280.714 2750.89 -318.383" stroke="#183E73" stroke-miterlimit="10"/>
</g>
</g>
</svg>
