<svg xmlns="http://www.w3.org/2000/svg" version="1.1" xmlns:xlink="http://www.w3.org/1999/xlink" xmlns:svgjs="http://svgjs.com/svgjs" width="1440" height="560" preserveAspectRatio="none" viewBox="0 0 1440 560"><g mask="url(&quot;#SvgjsMask1003&quot;)" fill="none"><path d="M742.27 669.9C866.38 614.01 811.27 222.44 1049.52 220.43 1287.78 218.42 1501.93 424.87 1664.03 427.63" stroke="rgba(51,121,194,0.58)" stroke-width="2"></path><path d="M256.86 669.16C386.11 647.35 445.74 333.47 656.62 329.89 867.5 326.31 856.5 399.89 1056.37 399.89 1256.25 399.89 1354.67 330.15 1456.13 329.89" stroke="rgba(51,121,194,0.58)" stroke-width="2"></path><path d="M585.68 599.7C683.2 597.64 661.42 471.36 952.25 466.05 1243.09 460.74 1492.07 222.92 1685.4 219.65" stroke="rgba(51,121,194,0.58)" stroke-width="2"></path><path d="M600.06 628.05C734.37 628.01 856.29 587.99 1135.55 584.66 1414.81 581.33 1520.82 318.09 1671.04 310.26" stroke="rgba(51,121,194,0.58)" stroke-width="2"></path><path d="M243.37 661.72C447.28 647.53 571.33 264.05 952.12 254.08 1332.9 244.11 1479.69 103.72 1660.86 102.88" stroke="rgba(51,121,194,0.58)" stroke-width="2"></path></g><defs><mask id="SvgjsMask1003"><rect width="1440" height="560" fill="#ffffff"></rect></mask></defs></svg>